G04 #@! TF.GenerationSoftware,KiCad,Pcbnew,(5.1.5)-2*
G04 #@! TF.CreationDate,2019-12-02T11:12:26+01:00*
G04 #@! TF.ProjectId,tutorial_1,7475746f-7269-4616-9c5f-312e6b696361,rev?*
G04 #@! TF.SameCoordinates,Original*
G04 #@! TF.FileFunction,Legend,Top*
G04 #@! TF.FilePolarity,Positive*
%FSLAX46Y46*%
G04 Gerber Fmt 4.6, Leading zero omitted, Abs format (unit mm)*
G04 Created by KiCad (PCBNEW (5.1.5)-2) date 2019-12-02 11:12:26*
%MOMM*%
%LPD*%
G04 APERTURE LIST*
%ADD10C,0.120000*%
%ADD11C,0.150000*%
G04 APERTURE END LIST*
D10*
X121470000Y-100329538D02*
G75*
G03X127020000Y-101874830I2990000J-462D01*
G01*
X121470000Y-100330462D02*
G75*
G02X127020000Y-98785170I2990000J462D01*
G01*
X126960000Y-100330000D02*
G75*
G03X126960000Y-100330000I-2500000J0D01*
G01*
X127020000Y-101875000D02*
X127020000Y-98785000D01*
X123190000Y-124630000D02*
X153190000Y-124630000D01*
X153190000Y-114130000D02*
X123190000Y-114130000D01*
X153190000Y-124630000D02*
G75*
G03X153190000Y-114130000I0J5250000D01*
G01*
X123190000Y-114130000D02*
G75*
G03X123190000Y-124630000I0J-5250000D01*
G01*
X153670000Y-101700000D02*
X153670000Y-101770000D01*
X155040000Y-100330000D02*
G75*
G03X155040000Y-100330000I-1370000J0D01*
G01*
X127100000Y-107950000D02*
G75*
G03X127100000Y-107950000I-1370000J0D01*
G01*
X124360000Y-107950000D02*
X124290000Y-107950000D01*
X135830000Y-100600000D02*
G75*
G02X135830000Y-102600000I0J-1000000D01*
G01*
X135830000Y-102600000D02*
X135830000Y-104250000D01*
X135830000Y-104250000D02*
X146110000Y-104250000D01*
X146110000Y-104250000D02*
X146110000Y-98950000D01*
X146110000Y-98950000D02*
X135830000Y-98950000D01*
X135830000Y-98950000D02*
X135830000Y-100600000D01*
D11*
X123721904Y-104742380D02*
X123721904Y-103742380D01*
X123960000Y-103742380D01*
X124102857Y-103790000D01*
X124198095Y-103885238D01*
X124245714Y-103980476D01*
X124293333Y-104170952D01*
X124293333Y-104313809D01*
X124245714Y-104504285D01*
X124198095Y-104599523D01*
X124102857Y-104694761D01*
X123960000Y-104742380D01*
X123721904Y-104742380D01*
X125245714Y-104742380D02*
X124674285Y-104742380D01*
X124960000Y-104742380D02*
X124960000Y-103742380D01*
X124864761Y-103885238D01*
X124769523Y-103980476D01*
X124674285Y-104028095D01*
X130606666Y-112582380D02*
X130606666Y-113296666D01*
X130559047Y-113439523D01*
X130463809Y-113534761D01*
X130320952Y-113582380D01*
X130225714Y-113582380D01*
X131606666Y-113582380D02*
X131035238Y-113582380D01*
X131320952Y-113582380D02*
X131320952Y-112582380D01*
X131225714Y-112725238D01*
X131130476Y-112820476D01*
X131035238Y-112868095D01*
X156492380Y-101766666D02*
X156016190Y-102100000D01*
X156492380Y-102338095D02*
X155492380Y-102338095D01*
X155492380Y-101957142D01*
X155540000Y-101861904D01*
X155587619Y-101814285D01*
X155682857Y-101766666D01*
X155825714Y-101766666D01*
X155920952Y-101814285D01*
X155968571Y-101861904D01*
X156016190Y-101957142D01*
X156016190Y-102338095D01*
X156492380Y-100814285D02*
X156492380Y-101385714D01*
X156492380Y-101100000D02*
X155492380Y-101100000D01*
X155635238Y-101195238D01*
X155730476Y-101290476D01*
X155778095Y-101385714D01*
X124293333Y-110772380D02*
X123960000Y-110296190D01*
X123721904Y-110772380D02*
X123721904Y-109772380D01*
X124102857Y-109772380D01*
X124198095Y-109820000D01*
X124245714Y-109867619D01*
X124293333Y-109962857D01*
X124293333Y-110105714D01*
X124245714Y-110200952D01*
X124198095Y-110248571D01*
X124102857Y-110296190D01*
X123721904Y-110296190D01*
X124674285Y-109867619D02*
X124721904Y-109820000D01*
X124817142Y-109772380D01*
X125055238Y-109772380D01*
X125150476Y-109820000D01*
X125198095Y-109867619D01*
X125245714Y-109962857D01*
X125245714Y-110058095D01*
X125198095Y-110200952D01*
X124626666Y-110772380D01*
X125245714Y-110772380D01*
X134282380Y-102361904D02*
X135091904Y-102361904D01*
X135187142Y-102314285D01*
X135234761Y-102266666D01*
X135282380Y-102171428D01*
X135282380Y-101980952D01*
X135234761Y-101885714D01*
X135187142Y-101838095D01*
X135091904Y-101790476D01*
X134282380Y-101790476D01*
X135282380Y-100790476D02*
X135282380Y-101361904D01*
X135282380Y-101076190D02*
X134282380Y-101076190D01*
X134425238Y-101171428D01*
X134520476Y-101266666D01*
X134568095Y-101361904D01*
M02*
