G04 #@! TF.GenerationSoftware,KiCad,Pcbnew,(5.1.5)-2*
G04 #@! TF.CreationDate,2019-12-02T11:12:26+01:00*
G04 #@! TF.ProjectId,tutorial_1,7475746f-7269-4616-9c5f-312e6b696361,rev?*
G04 #@! TF.SameCoordinates,Original*
G04 #@! TF.FileFunction,Copper,L2,Bot*
G04 #@! TF.FilePolarity,Positive*
%FSLAX46Y46*%
G04 Gerber Fmt 4.6, Leading zero omitted, Abs format (unit mm)*
G04 Created by KiCad (PCBNEW (5.1.5)-2) date 2019-12-02 11:12:26*
%MOMM*%
%LPD*%
G04 APERTURE LIST*
%ADD10R,1.800000X1.800000*%
%ADD11C,1.800000*%
%ADD12C,10.160000*%
%ADD13O,1.600000X1.600000*%
%ADD14C,1.600000*%
%ADD15R,1.600000X1.600000*%
%ADD16C,0.250000*%
%ADD17C,0.254000*%
G04 APERTURE END LIST*
D10*
X125730000Y-100330000D03*
D11*
X123190000Y-100330000D03*
D12*
X123190000Y-119380000D03*
X153160000Y-119380000D03*
X138180000Y-119380000D03*
D13*
X153670000Y-102870000D03*
D14*
X153670000Y-100330000D03*
X125730000Y-107950000D03*
D13*
X123190000Y-107950000D03*
D15*
X137160000Y-105410000D03*
D13*
X144780000Y-97790000D03*
X139700000Y-105410000D03*
X142240000Y-97790000D03*
X142240000Y-105410000D03*
X139700000Y-97790000D03*
X144780000Y-105410000D03*
X137160000Y-97790000D03*
D16*
X153160000Y-112050998D02*
X150329002Y-109220000D01*
X153160000Y-119380000D02*
X153160000Y-112050998D01*
X150329002Y-109220000D02*
X135890000Y-109220000D01*
X135890000Y-109220000D02*
X132080000Y-105410000D01*
X132080000Y-102870000D02*
X137160000Y-97790000D01*
X132080000Y-105410000D02*
X132080000Y-102870000D01*
X153160000Y-112195796D02*
X151454204Y-110490000D01*
X153160000Y-119380000D02*
X153160000Y-112195796D01*
X151454204Y-110490000D02*
X134620000Y-110490000D01*
D17*
G36*
X161900001Y-126340000D02*
G01*
X116230000Y-126340000D01*
X116230000Y-118817122D01*
X117475000Y-118817122D01*
X117475000Y-119942878D01*
X117694625Y-121047004D01*
X118125433Y-122087067D01*
X118750870Y-123023100D01*
X119546900Y-123819130D01*
X120482933Y-124444567D01*
X121522996Y-124875375D01*
X122627122Y-125095000D01*
X123752878Y-125095000D01*
X124857004Y-124875375D01*
X125897067Y-124444567D01*
X126833100Y-123819130D01*
X127629130Y-123023100D01*
X128254567Y-122087067D01*
X128685375Y-121047004D01*
X128905000Y-119942878D01*
X128905000Y-118817122D01*
X132465000Y-118817122D01*
X132465000Y-119942878D01*
X132684625Y-121047004D01*
X133115433Y-122087067D01*
X133740870Y-123023100D01*
X134536900Y-123819130D01*
X135472933Y-124444567D01*
X136512996Y-124875375D01*
X137617122Y-125095000D01*
X138742878Y-125095000D01*
X139847004Y-124875375D01*
X140887067Y-124444567D01*
X141823100Y-123819130D01*
X142225034Y-123417196D01*
X149302409Y-123417196D01*
X149888124Y-124099416D01*
X150871704Y-124647045D01*
X151943223Y-124992265D01*
X153061501Y-125121808D01*
X154183565Y-125030697D01*
X155266294Y-124722433D01*
X156268079Y-124208863D01*
X156431876Y-124099416D01*
X157017591Y-123417196D01*
X153160000Y-119559605D01*
X149302409Y-123417196D01*
X142225034Y-123417196D01*
X142619130Y-123023100D01*
X143244567Y-122087067D01*
X143675375Y-121047004D01*
X143895000Y-119942878D01*
X143895000Y-119281501D01*
X147418192Y-119281501D01*
X147509303Y-120403565D01*
X147817567Y-121486294D01*
X148331137Y-122488079D01*
X148440584Y-122651876D01*
X149122804Y-123237591D01*
X152980395Y-119380000D01*
X153339605Y-119380000D01*
X157197196Y-123237591D01*
X157879416Y-122651876D01*
X158427045Y-121668296D01*
X158772265Y-120596777D01*
X158901808Y-119478499D01*
X158810697Y-118356435D01*
X158502433Y-117273706D01*
X157988863Y-116271921D01*
X157879416Y-116108124D01*
X157197196Y-115522409D01*
X153339605Y-119380000D01*
X152980395Y-119380000D01*
X149122804Y-115522409D01*
X148440584Y-116108124D01*
X147892955Y-117091704D01*
X147547735Y-118163223D01*
X147418192Y-119281501D01*
X143895000Y-119281501D01*
X143895000Y-118817122D01*
X143675375Y-117712996D01*
X143244567Y-116672933D01*
X142619130Y-115736900D01*
X142225034Y-115342804D01*
X149302409Y-115342804D01*
X153160000Y-119200395D01*
X157017591Y-115342804D01*
X156431876Y-114660584D01*
X155448296Y-114112955D01*
X154376777Y-113767735D01*
X153258499Y-113638192D01*
X152136435Y-113729303D01*
X151053706Y-114037567D01*
X150051921Y-114551137D01*
X149888124Y-114660584D01*
X149302409Y-115342804D01*
X142225034Y-115342804D01*
X141823100Y-114940870D01*
X140887067Y-114315433D01*
X139847004Y-113884625D01*
X138742878Y-113665000D01*
X137617122Y-113665000D01*
X136512996Y-113884625D01*
X135472933Y-114315433D01*
X134536900Y-114940870D01*
X133740870Y-115736900D01*
X133115433Y-116672933D01*
X132684625Y-117712996D01*
X132465000Y-118817122D01*
X128905000Y-118817122D01*
X128685375Y-117712996D01*
X128254567Y-116672933D01*
X127629130Y-115736900D01*
X126833100Y-114940870D01*
X125897067Y-114315433D01*
X124857004Y-113884625D01*
X123752878Y-113665000D01*
X122627122Y-113665000D01*
X121522996Y-113884625D01*
X120482933Y-114315433D01*
X119546900Y-114940870D01*
X118750870Y-115736900D01*
X118125433Y-116672933D01*
X117694625Y-117712996D01*
X117475000Y-118817122D01*
X116230000Y-118817122D01*
X116230000Y-107808665D01*
X121755000Y-107808665D01*
X121755000Y-108091335D01*
X121810147Y-108368574D01*
X121918320Y-108629727D01*
X122075363Y-108864759D01*
X122275241Y-109064637D01*
X122510273Y-109221680D01*
X122771426Y-109329853D01*
X123048665Y-109385000D01*
X123331335Y-109385000D01*
X123608574Y-109329853D01*
X123869727Y-109221680D01*
X124104759Y-109064637D01*
X124304637Y-108864759D01*
X124460000Y-108632241D01*
X124615363Y-108864759D01*
X124815241Y-109064637D01*
X125050273Y-109221680D01*
X125311426Y-109329853D01*
X125588665Y-109385000D01*
X125871335Y-109385000D01*
X126148574Y-109329853D01*
X126409727Y-109221680D01*
X126644759Y-109064637D01*
X126844637Y-108864759D01*
X127001680Y-108629727D01*
X127109853Y-108368574D01*
X127165000Y-108091335D01*
X127165000Y-107808665D01*
X127109853Y-107531426D01*
X127001680Y-107270273D01*
X126844637Y-107035241D01*
X126644759Y-106835363D01*
X126409727Y-106678320D01*
X126148574Y-106570147D01*
X125871335Y-106515000D01*
X125588665Y-106515000D01*
X125311426Y-106570147D01*
X125050273Y-106678320D01*
X124815241Y-106835363D01*
X124615363Y-107035241D01*
X124460000Y-107267759D01*
X124304637Y-107035241D01*
X124104759Y-106835363D01*
X123869727Y-106678320D01*
X123608574Y-106570147D01*
X123331335Y-106515000D01*
X123048665Y-106515000D01*
X122771426Y-106570147D01*
X122510273Y-106678320D01*
X122275241Y-106835363D01*
X122075363Y-107035241D01*
X121918320Y-107270273D01*
X121810147Y-107531426D01*
X121755000Y-107808665D01*
X116230000Y-107808665D01*
X116230000Y-104610000D01*
X135721928Y-104610000D01*
X135721928Y-106210000D01*
X135734188Y-106334482D01*
X135770498Y-106454180D01*
X135829463Y-106564494D01*
X135908815Y-106661185D01*
X136005506Y-106740537D01*
X136115820Y-106799502D01*
X136235518Y-106835812D01*
X136360000Y-106848072D01*
X137960000Y-106848072D01*
X138084482Y-106835812D01*
X138204180Y-106799502D01*
X138314494Y-106740537D01*
X138411185Y-106661185D01*
X138490537Y-106564494D01*
X138549502Y-106454180D01*
X138585812Y-106334482D01*
X138586643Y-106326039D01*
X138785241Y-106524637D01*
X139020273Y-106681680D01*
X139281426Y-106789853D01*
X139558665Y-106845000D01*
X139841335Y-106845000D01*
X140118574Y-106789853D01*
X140379727Y-106681680D01*
X140614759Y-106524637D01*
X140814637Y-106324759D01*
X140970000Y-106092241D01*
X141125363Y-106324759D01*
X141325241Y-106524637D01*
X141560273Y-106681680D01*
X141821426Y-106789853D01*
X142098665Y-106845000D01*
X142381335Y-106845000D01*
X142658574Y-106789853D01*
X142919727Y-106681680D01*
X143154759Y-106524637D01*
X143354637Y-106324759D01*
X143510000Y-106092241D01*
X143665363Y-106324759D01*
X143865241Y-106524637D01*
X144100273Y-106681680D01*
X144361426Y-106789853D01*
X144638665Y-106845000D01*
X144921335Y-106845000D01*
X145198574Y-106789853D01*
X145459727Y-106681680D01*
X145694759Y-106524637D01*
X145894637Y-106324759D01*
X146051680Y-106089727D01*
X146159853Y-105828574D01*
X146215000Y-105551335D01*
X146215000Y-105268665D01*
X146159853Y-104991426D01*
X146051680Y-104730273D01*
X145894637Y-104495241D01*
X145694759Y-104295363D01*
X145459727Y-104138320D01*
X145198574Y-104030147D01*
X144921335Y-103975000D01*
X144638665Y-103975000D01*
X144361426Y-104030147D01*
X144100273Y-104138320D01*
X143865241Y-104295363D01*
X143665363Y-104495241D01*
X143510000Y-104727759D01*
X143354637Y-104495241D01*
X143154759Y-104295363D01*
X142919727Y-104138320D01*
X142658574Y-104030147D01*
X142381335Y-103975000D01*
X142098665Y-103975000D01*
X141821426Y-104030147D01*
X141560273Y-104138320D01*
X141325241Y-104295363D01*
X141125363Y-104495241D01*
X140970000Y-104727759D01*
X140814637Y-104495241D01*
X140614759Y-104295363D01*
X140379727Y-104138320D01*
X140118574Y-104030147D01*
X139841335Y-103975000D01*
X139558665Y-103975000D01*
X139281426Y-104030147D01*
X139020273Y-104138320D01*
X138785241Y-104295363D01*
X138586643Y-104493961D01*
X138585812Y-104485518D01*
X138549502Y-104365820D01*
X138490537Y-104255506D01*
X138411185Y-104158815D01*
X138314494Y-104079463D01*
X138204180Y-104020498D01*
X138084482Y-103984188D01*
X137960000Y-103971928D01*
X136360000Y-103971928D01*
X136235518Y-103984188D01*
X136115820Y-104020498D01*
X136005506Y-104079463D01*
X135908815Y-104158815D01*
X135829463Y-104255506D01*
X135770498Y-104365820D01*
X135734188Y-104485518D01*
X135721928Y-104610000D01*
X116230000Y-104610000D01*
X116230000Y-100178816D01*
X121655000Y-100178816D01*
X121655000Y-100481184D01*
X121713989Y-100777743D01*
X121829701Y-101057095D01*
X121997688Y-101308505D01*
X122211495Y-101522312D01*
X122462905Y-101690299D01*
X122742257Y-101806011D01*
X123038816Y-101865000D01*
X123341184Y-101865000D01*
X123637743Y-101806011D01*
X123917095Y-101690299D01*
X124168505Y-101522312D01*
X124234944Y-101455873D01*
X124240498Y-101474180D01*
X124299463Y-101584494D01*
X124378815Y-101681185D01*
X124475506Y-101760537D01*
X124585820Y-101819502D01*
X124705518Y-101855812D01*
X124830000Y-101868072D01*
X126630000Y-101868072D01*
X126754482Y-101855812D01*
X126874180Y-101819502D01*
X126984494Y-101760537D01*
X127081185Y-101681185D01*
X127160537Y-101584494D01*
X127219502Y-101474180D01*
X127255812Y-101354482D01*
X127268072Y-101230000D01*
X127268072Y-100188665D01*
X152235000Y-100188665D01*
X152235000Y-100471335D01*
X152290147Y-100748574D01*
X152398320Y-101009727D01*
X152555363Y-101244759D01*
X152755241Y-101444637D01*
X152987759Y-101600000D01*
X152755241Y-101755363D01*
X152555363Y-101955241D01*
X152398320Y-102190273D01*
X152290147Y-102451426D01*
X152235000Y-102728665D01*
X152235000Y-103011335D01*
X152290147Y-103288574D01*
X152398320Y-103549727D01*
X152555363Y-103784759D01*
X152755241Y-103984637D01*
X152990273Y-104141680D01*
X153251426Y-104249853D01*
X153528665Y-104305000D01*
X153811335Y-104305000D01*
X154088574Y-104249853D01*
X154349727Y-104141680D01*
X154584759Y-103984637D01*
X154784637Y-103784759D01*
X154941680Y-103549727D01*
X155049853Y-103288574D01*
X155105000Y-103011335D01*
X155105000Y-102728665D01*
X155049853Y-102451426D01*
X154941680Y-102190273D01*
X154784637Y-101955241D01*
X154584759Y-101755363D01*
X154352241Y-101600000D01*
X154584759Y-101444637D01*
X154784637Y-101244759D01*
X154941680Y-101009727D01*
X155049853Y-100748574D01*
X155105000Y-100471335D01*
X155105000Y-100188665D01*
X155049853Y-99911426D01*
X154941680Y-99650273D01*
X154784637Y-99415241D01*
X154584759Y-99215363D01*
X154349727Y-99058320D01*
X154088574Y-98950147D01*
X153811335Y-98895000D01*
X153528665Y-98895000D01*
X153251426Y-98950147D01*
X152990273Y-99058320D01*
X152755241Y-99215363D01*
X152555363Y-99415241D01*
X152398320Y-99650273D01*
X152290147Y-99911426D01*
X152235000Y-100188665D01*
X127268072Y-100188665D01*
X127268072Y-99430000D01*
X127255812Y-99305518D01*
X127219502Y-99185820D01*
X127160537Y-99075506D01*
X127081185Y-98978815D01*
X126984494Y-98899463D01*
X126874180Y-98840498D01*
X126754482Y-98804188D01*
X126630000Y-98791928D01*
X124830000Y-98791928D01*
X124705518Y-98804188D01*
X124585820Y-98840498D01*
X124475506Y-98899463D01*
X124378815Y-98978815D01*
X124299463Y-99075506D01*
X124240498Y-99185820D01*
X124234944Y-99204127D01*
X124168505Y-99137688D01*
X123917095Y-98969701D01*
X123637743Y-98853989D01*
X123341184Y-98795000D01*
X123038816Y-98795000D01*
X122742257Y-98853989D01*
X122462905Y-98969701D01*
X122211495Y-99137688D01*
X121997688Y-99351495D01*
X121829701Y-99602905D01*
X121713989Y-99882257D01*
X121655000Y-100178816D01*
X116230000Y-100178816D01*
X116230000Y-98139040D01*
X135768091Y-98139040D01*
X135862930Y-98403881D01*
X136007615Y-98645131D01*
X136196586Y-98853519D01*
X136422580Y-99021037D01*
X136676913Y-99141246D01*
X136810961Y-99181904D01*
X137033000Y-99059915D01*
X137033000Y-97917000D01*
X135889376Y-97917000D01*
X135768091Y-98139040D01*
X116230000Y-98139040D01*
X116230000Y-97440960D01*
X135768091Y-97440960D01*
X135889376Y-97663000D01*
X137033000Y-97663000D01*
X137033000Y-96520085D01*
X137287000Y-96520085D01*
X137287000Y-97663000D01*
X137307000Y-97663000D01*
X137307000Y-97917000D01*
X137287000Y-97917000D01*
X137287000Y-99059915D01*
X137509039Y-99181904D01*
X137643087Y-99141246D01*
X137897420Y-99021037D01*
X138123414Y-98853519D01*
X138312385Y-98645131D01*
X138423933Y-98459135D01*
X138428320Y-98469727D01*
X138585363Y-98704759D01*
X138785241Y-98904637D01*
X139020273Y-99061680D01*
X139281426Y-99169853D01*
X139558665Y-99225000D01*
X139841335Y-99225000D01*
X140118574Y-99169853D01*
X140379727Y-99061680D01*
X140614759Y-98904637D01*
X140814637Y-98704759D01*
X140970000Y-98472241D01*
X141125363Y-98704759D01*
X141325241Y-98904637D01*
X141560273Y-99061680D01*
X141821426Y-99169853D01*
X142098665Y-99225000D01*
X142381335Y-99225000D01*
X142658574Y-99169853D01*
X142919727Y-99061680D01*
X143154759Y-98904637D01*
X143354637Y-98704759D01*
X143510000Y-98472241D01*
X143665363Y-98704759D01*
X143865241Y-98904637D01*
X144100273Y-99061680D01*
X144361426Y-99169853D01*
X144638665Y-99225000D01*
X144921335Y-99225000D01*
X145198574Y-99169853D01*
X145459727Y-99061680D01*
X145694759Y-98904637D01*
X145894637Y-98704759D01*
X146051680Y-98469727D01*
X146159853Y-98208574D01*
X146215000Y-97931335D01*
X146215000Y-97648665D01*
X146159853Y-97371426D01*
X146051680Y-97110273D01*
X145894637Y-96875241D01*
X145694759Y-96675363D01*
X145459727Y-96518320D01*
X145198574Y-96410147D01*
X144921335Y-96355000D01*
X144638665Y-96355000D01*
X144361426Y-96410147D01*
X144100273Y-96518320D01*
X143865241Y-96675363D01*
X143665363Y-96875241D01*
X143510000Y-97107759D01*
X143354637Y-96875241D01*
X143154759Y-96675363D01*
X142919727Y-96518320D01*
X142658574Y-96410147D01*
X142381335Y-96355000D01*
X142098665Y-96355000D01*
X141821426Y-96410147D01*
X141560273Y-96518320D01*
X141325241Y-96675363D01*
X141125363Y-96875241D01*
X140970000Y-97107759D01*
X140814637Y-96875241D01*
X140614759Y-96675363D01*
X140379727Y-96518320D01*
X140118574Y-96410147D01*
X139841335Y-96355000D01*
X139558665Y-96355000D01*
X139281426Y-96410147D01*
X139020273Y-96518320D01*
X138785241Y-96675363D01*
X138585363Y-96875241D01*
X138428320Y-97110273D01*
X138423933Y-97120865D01*
X138312385Y-96934869D01*
X138123414Y-96726481D01*
X137897420Y-96558963D01*
X137643087Y-96438754D01*
X137509039Y-96398096D01*
X137287000Y-96520085D01*
X137033000Y-96520085D01*
X136810961Y-96398096D01*
X136676913Y-96438754D01*
X136422580Y-96558963D01*
X136196586Y-96726481D01*
X136007615Y-96934869D01*
X135862930Y-97176119D01*
X135768091Y-97440960D01*
X116230000Y-97440960D01*
X116230000Y-93370000D01*
X161900000Y-93370000D01*
X161900001Y-126340000D01*
G37*
X161900001Y-126340000D02*
X116230000Y-126340000D01*
X116230000Y-118817122D01*
X117475000Y-118817122D01*
X117475000Y-119942878D01*
X117694625Y-121047004D01*
X118125433Y-122087067D01*
X118750870Y-123023100D01*
X119546900Y-123819130D01*
X120482933Y-124444567D01*
X121522996Y-124875375D01*
X122627122Y-125095000D01*
X123752878Y-125095000D01*
X124857004Y-124875375D01*
X125897067Y-124444567D01*
X126833100Y-123819130D01*
X127629130Y-123023100D01*
X128254567Y-122087067D01*
X128685375Y-121047004D01*
X128905000Y-119942878D01*
X128905000Y-118817122D01*
X132465000Y-118817122D01*
X132465000Y-119942878D01*
X132684625Y-121047004D01*
X133115433Y-122087067D01*
X133740870Y-123023100D01*
X134536900Y-123819130D01*
X135472933Y-124444567D01*
X136512996Y-124875375D01*
X137617122Y-125095000D01*
X138742878Y-125095000D01*
X139847004Y-124875375D01*
X140887067Y-124444567D01*
X141823100Y-123819130D01*
X142225034Y-123417196D01*
X149302409Y-123417196D01*
X149888124Y-124099416D01*
X150871704Y-124647045D01*
X151943223Y-124992265D01*
X153061501Y-125121808D01*
X154183565Y-125030697D01*
X155266294Y-124722433D01*
X156268079Y-124208863D01*
X156431876Y-124099416D01*
X157017591Y-123417196D01*
X153160000Y-119559605D01*
X149302409Y-123417196D01*
X142225034Y-123417196D01*
X142619130Y-123023100D01*
X143244567Y-122087067D01*
X143675375Y-121047004D01*
X143895000Y-119942878D01*
X143895000Y-119281501D01*
X147418192Y-119281501D01*
X147509303Y-120403565D01*
X147817567Y-121486294D01*
X148331137Y-122488079D01*
X148440584Y-122651876D01*
X149122804Y-123237591D01*
X152980395Y-119380000D01*
X153339605Y-119380000D01*
X157197196Y-123237591D01*
X157879416Y-122651876D01*
X158427045Y-121668296D01*
X158772265Y-120596777D01*
X158901808Y-119478499D01*
X158810697Y-118356435D01*
X158502433Y-117273706D01*
X157988863Y-116271921D01*
X157879416Y-116108124D01*
X157197196Y-115522409D01*
X153339605Y-119380000D01*
X152980395Y-119380000D01*
X149122804Y-115522409D01*
X148440584Y-116108124D01*
X147892955Y-117091704D01*
X147547735Y-118163223D01*
X147418192Y-119281501D01*
X143895000Y-119281501D01*
X143895000Y-118817122D01*
X143675375Y-117712996D01*
X143244567Y-116672933D01*
X142619130Y-115736900D01*
X142225034Y-115342804D01*
X149302409Y-115342804D01*
X153160000Y-119200395D01*
X157017591Y-115342804D01*
X156431876Y-114660584D01*
X155448296Y-114112955D01*
X154376777Y-113767735D01*
X153258499Y-113638192D01*
X152136435Y-113729303D01*
X151053706Y-114037567D01*
X150051921Y-114551137D01*
X149888124Y-114660584D01*
X149302409Y-115342804D01*
X142225034Y-115342804D01*
X141823100Y-114940870D01*
X140887067Y-114315433D01*
X139847004Y-113884625D01*
X138742878Y-113665000D01*
X137617122Y-113665000D01*
X136512996Y-113884625D01*
X135472933Y-114315433D01*
X134536900Y-114940870D01*
X133740870Y-115736900D01*
X133115433Y-116672933D01*
X132684625Y-117712996D01*
X132465000Y-118817122D01*
X128905000Y-118817122D01*
X128685375Y-117712996D01*
X128254567Y-116672933D01*
X127629130Y-115736900D01*
X126833100Y-114940870D01*
X125897067Y-114315433D01*
X124857004Y-113884625D01*
X123752878Y-113665000D01*
X122627122Y-113665000D01*
X121522996Y-113884625D01*
X120482933Y-114315433D01*
X119546900Y-114940870D01*
X118750870Y-115736900D01*
X118125433Y-116672933D01*
X117694625Y-117712996D01*
X117475000Y-118817122D01*
X116230000Y-118817122D01*
X116230000Y-107808665D01*
X121755000Y-107808665D01*
X121755000Y-108091335D01*
X121810147Y-108368574D01*
X121918320Y-108629727D01*
X122075363Y-108864759D01*
X122275241Y-109064637D01*
X122510273Y-109221680D01*
X122771426Y-109329853D01*
X123048665Y-109385000D01*
X123331335Y-109385000D01*
X123608574Y-109329853D01*
X123869727Y-109221680D01*
X124104759Y-109064637D01*
X124304637Y-108864759D01*
X124460000Y-108632241D01*
X124615363Y-108864759D01*
X124815241Y-109064637D01*
X125050273Y-109221680D01*
X125311426Y-109329853D01*
X125588665Y-109385000D01*
X125871335Y-109385000D01*
X126148574Y-109329853D01*
X126409727Y-109221680D01*
X126644759Y-109064637D01*
X126844637Y-108864759D01*
X127001680Y-108629727D01*
X127109853Y-108368574D01*
X127165000Y-108091335D01*
X127165000Y-107808665D01*
X127109853Y-107531426D01*
X127001680Y-107270273D01*
X126844637Y-107035241D01*
X126644759Y-106835363D01*
X126409727Y-106678320D01*
X126148574Y-106570147D01*
X125871335Y-106515000D01*
X125588665Y-106515000D01*
X125311426Y-106570147D01*
X125050273Y-106678320D01*
X124815241Y-106835363D01*
X124615363Y-107035241D01*
X124460000Y-107267759D01*
X124304637Y-107035241D01*
X124104759Y-106835363D01*
X123869727Y-106678320D01*
X123608574Y-106570147D01*
X123331335Y-106515000D01*
X123048665Y-106515000D01*
X122771426Y-106570147D01*
X122510273Y-106678320D01*
X122275241Y-106835363D01*
X122075363Y-107035241D01*
X121918320Y-107270273D01*
X121810147Y-107531426D01*
X121755000Y-107808665D01*
X116230000Y-107808665D01*
X116230000Y-104610000D01*
X135721928Y-104610000D01*
X135721928Y-106210000D01*
X135734188Y-106334482D01*
X135770498Y-106454180D01*
X135829463Y-106564494D01*
X135908815Y-106661185D01*
X136005506Y-106740537D01*
X136115820Y-106799502D01*
X136235518Y-106835812D01*
X136360000Y-106848072D01*
X137960000Y-106848072D01*
X138084482Y-106835812D01*
X138204180Y-106799502D01*
X138314494Y-106740537D01*
X138411185Y-106661185D01*
X138490537Y-106564494D01*
X138549502Y-106454180D01*
X138585812Y-106334482D01*
X138586643Y-106326039D01*
X138785241Y-106524637D01*
X139020273Y-106681680D01*
X139281426Y-106789853D01*
X139558665Y-106845000D01*
X139841335Y-106845000D01*
X140118574Y-106789853D01*
X140379727Y-106681680D01*
X140614759Y-106524637D01*
X140814637Y-106324759D01*
X140970000Y-106092241D01*
X141125363Y-106324759D01*
X141325241Y-106524637D01*
X141560273Y-106681680D01*
X141821426Y-106789853D01*
X142098665Y-106845000D01*
X142381335Y-106845000D01*
X142658574Y-106789853D01*
X142919727Y-106681680D01*
X143154759Y-106524637D01*
X143354637Y-106324759D01*
X143510000Y-106092241D01*
X143665363Y-106324759D01*
X143865241Y-106524637D01*
X144100273Y-106681680D01*
X144361426Y-106789853D01*
X144638665Y-106845000D01*
X144921335Y-106845000D01*
X145198574Y-106789853D01*
X145459727Y-106681680D01*
X145694759Y-106524637D01*
X145894637Y-106324759D01*
X146051680Y-106089727D01*
X146159853Y-105828574D01*
X146215000Y-105551335D01*
X146215000Y-105268665D01*
X146159853Y-104991426D01*
X146051680Y-104730273D01*
X145894637Y-104495241D01*
X145694759Y-104295363D01*
X145459727Y-104138320D01*
X145198574Y-104030147D01*
X144921335Y-103975000D01*
X144638665Y-103975000D01*
X144361426Y-104030147D01*
X144100273Y-104138320D01*
X143865241Y-104295363D01*
X143665363Y-104495241D01*
X143510000Y-104727759D01*
X143354637Y-104495241D01*
X143154759Y-104295363D01*
X142919727Y-104138320D01*
X142658574Y-104030147D01*
X142381335Y-103975000D01*
X142098665Y-103975000D01*
X141821426Y-104030147D01*
X141560273Y-104138320D01*
X141325241Y-104295363D01*
X141125363Y-104495241D01*
X140970000Y-104727759D01*
X140814637Y-104495241D01*
X140614759Y-104295363D01*
X140379727Y-104138320D01*
X140118574Y-104030147D01*
X139841335Y-103975000D01*
X139558665Y-103975000D01*
X139281426Y-104030147D01*
X139020273Y-104138320D01*
X138785241Y-104295363D01*
X138586643Y-104493961D01*
X138585812Y-104485518D01*
X138549502Y-104365820D01*
X138490537Y-104255506D01*
X138411185Y-104158815D01*
X138314494Y-104079463D01*
X138204180Y-104020498D01*
X138084482Y-103984188D01*
X137960000Y-103971928D01*
X136360000Y-103971928D01*
X136235518Y-103984188D01*
X136115820Y-104020498D01*
X136005506Y-104079463D01*
X135908815Y-104158815D01*
X135829463Y-104255506D01*
X135770498Y-104365820D01*
X135734188Y-104485518D01*
X135721928Y-104610000D01*
X116230000Y-104610000D01*
X116230000Y-100178816D01*
X121655000Y-100178816D01*
X121655000Y-100481184D01*
X121713989Y-100777743D01*
X121829701Y-101057095D01*
X121997688Y-101308505D01*
X122211495Y-101522312D01*
X122462905Y-101690299D01*
X122742257Y-101806011D01*
X123038816Y-101865000D01*
X123341184Y-101865000D01*
X123637743Y-101806011D01*
X123917095Y-101690299D01*
X124168505Y-101522312D01*
X124234944Y-101455873D01*
X124240498Y-101474180D01*
X124299463Y-101584494D01*
X124378815Y-101681185D01*
X124475506Y-101760537D01*
X124585820Y-101819502D01*
X124705518Y-101855812D01*
X124830000Y-101868072D01*
X126630000Y-101868072D01*
X126754482Y-101855812D01*
X126874180Y-101819502D01*
X126984494Y-101760537D01*
X127081185Y-101681185D01*
X127160537Y-101584494D01*
X127219502Y-101474180D01*
X127255812Y-101354482D01*
X127268072Y-101230000D01*
X127268072Y-100188665D01*
X152235000Y-100188665D01*
X152235000Y-100471335D01*
X152290147Y-100748574D01*
X152398320Y-101009727D01*
X152555363Y-101244759D01*
X152755241Y-101444637D01*
X152987759Y-101600000D01*
X152755241Y-101755363D01*
X152555363Y-101955241D01*
X152398320Y-102190273D01*
X152290147Y-102451426D01*
X152235000Y-102728665D01*
X152235000Y-103011335D01*
X152290147Y-103288574D01*
X152398320Y-103549727D01*
X152555363Y-103784759D01*
X152755241Y-103984637D01*
X152990273Y-104141680D01*
X153251426Y-104249853D01*
X153528665Y-104305000D01*
X153811335Y-104305000D01*
X154088574Y-104249853D01*
X154349727Y-104141680D01*
X154584759Y-103984637D01*
X154784637Y-103784759D01*
X154941680Y-103549727D01*
X155049853Y-103288574D01*
X155105000Y-103011335D01*
X155105000Y-102728665D01*
X155049853Y-102451426D01*
X154941680Y-102190273D01*
X154784637Y-101955241D01*
X154584759Y-101755363D01*
X154352241Y-101600000D01*
X154584759Y-101444637D01*
X154784637Y-101244759D01*
X154941680Y-101009727D01*
X155049853Y-100748574D01*
X155105000Y-100471335D01*
X155105000Y-100188665D01*
X155049853Y-99911426D01*
X154941680Y-99650273D01*
X154784637Y-99415241D01*
X154584759Y-99215363D01*
X154349727Y-99058320D01*
X154088574Y-98950147D01*
X153811335Y-98895000D01*
X153528665Y-98895000D01*
X153251426Y-98950147D01*
X152990273Y-99058320D01*
X152755241Y-99215363D01*
X152555363Y-99415241D01*
X152398320Y-99650273D01*
X152290147Y-99911426D01*
X152235000Y-100188665D01*
X127268072Y-100188665D01*
X127268072Y-99430000D01*
X127255812Y-99305518D01*
X127219502Y-99185820D01*
X127160537Y-99075506D01*
X127081185Y-98978815D01*
X126984494Y-98899463D01*
X126874180Y-98840498D01*
X126754482Y-98804188D01*
X126630000Y-98791928D01*
X124830000Y-98791928D01*
X124705518Y-98804188D01*
X124585820Y-98840498D01*
X124475506Y-98899463D01*
X124378815Y-98978815D01*
X124299463Y-99075506D01*
X124240498Y-99185820D01*
X124234944Y-99204127D01*
X124168505Y-99137688D01*
X123917095Y-98969701D01*
X123637743Y-98853989D01*
X123341184Y-98795000D01*
X123038816Y-98795000D01*
X122742257Y-98853989D01*
X122462905Y-98969701D01*
X122211495Y-99137688D01*
X121997688Y-99351495D01*
X121829701Y-99602905D01*
X121713989Y-99882257D01*
X121655000Y-100178816D01*
X116230000Y-100178816D01*
X116230000Y-98139040D01*
X135768091Y-98139040D01*
X135862930Y-98403881D01*
X136007615Y-98645131D01*
X136196586Y-98853519D01*
X136422580Y-99021037D01*
X136676913Y-99141246D01*
X136810961Y-99181904D01*
X137033000Y-99059915D01*
X137033000Y-97917000D01*
X135889376Y-97917000D01*
X135768091Y-98139040D01*
X116230000Y-98139040D01*
X116230000Y-97440960D01*
X135768091Y-97440960D01*
X135889376Y-97663000D01*
X137033000Y-97663000D01*
X137033000Y-96520085D01*
X137287000Y-96520085D01*
X137287000Y-97663000D01*
X137307000Y-97663000D01*
X137307000Y-97917000D01*
X137287000Y-97917000D01*
X137287000Y-99059915D01*
X137509039Y-99181904D01*
X137643087Y-99141246D01*
X137897420Y-99021037D01*
X138123414Y-98853519D01*
X138312385Y-98645131D01*
X138423933Y-98459135D01*
X138428320Y-98469727D01*
X138585363Y-98704759D01*
X138785241Y-98904637D01*
X139020273Y-99061680D01*
X139281426Y-99169853D01*
X139558665Y-99225000D01*
X139841335Y-99225000D01*
X140118574Y-99169853D01*
X140379727Y-99061680D01*
X140614759Y-98904637D01*
X140814637Y-98704759D01*
X140970000Y-98472241D01*
X141125363Y-98704759D01*
X141325241Y-98904637D01*
X141560273Y-99061680D01*
X141821426Y-99169853D01*
X142098665Y-99225000D01*
X142381335Y-99225000D01*
X142658574Y-99169853D01*
X142919727Y-99061680D01*
X143154759Y-98904637D01*
X143354637Y-98704759D01*
X143510000Y-98472241D01*
X143665363Y-98704759D01*
X143865241Y-98904637D01*
X144100273Y-99061680D01*
X144361426Y-99169853D01*
X144638665Y-99225000D01*
X144921335Y-99225000D01*
X145198574Y-99169853D01*
X145459727Y-99061680D01*
X145694759Y-98904637D01*
X145894637Y-98704759D01*
X146051680Y-98469727D01*
X146159853Y-98208574D01*
X146215000Y-97931335D01*
X146215000Y-97648665D01*
X146159853Y-97371426D01*
X146051680Y-97110273D01*
X145894637Y-96875241D01*
X145694759Y-96675363D01*
X145459727Y-96518320D01*
X145198574Y-96410147D01*
X144921335Y-96355000D01*
X144638665Y-96355000D01*
X144361426Y-96410147D01*
X144100273Y-96518320D01*
X143865241Y-96675363D01*
X143665363Y-96875241D01*
X143510000Y-97107759D01*
X143354637Y-96875241D01*
X143154759Y-96675363D01*
X142919727Y-96518320D01*
X142658574Y-96410147D01*
X142381335Y-96355000D01*
X142098665Y-96355000D01*
X141821426Y-96410147D01*
X141560273Y-96518320D01*
X141325241Y-96675363D01*
X141125363Y-96875241D01*
X140970000Y-97107759D01*
X140814637Y-96875241D01*
X140614759Y-96675363D01*
X140379727Y-96518320D01*
X140118574Y-96410147D01*
X139841335Y-96355000D01*
X139558665Y-96355000D01*
X139281426Y-96410147D01*
X139020273Y-96518320D01*
X138785241Y-96675363D01*
X138585363Y-96875241D01*
X138428320Y-97110273D01*
X138423933Y-97120865D01*
X138312385Y-96934869D01*
X138123414Y-96726481D01*
X137897420Y-96558963D01*
X137643087Y-96438754D01*
X137509039Y-96398096D01*
X137287000Y-96520085D01*
X137033000Y-96520085D01*
X136810961Y-96398096D01*
X136676913Y-96438754D01*
X136422580Y-96558963D01*
X136196586Y-96726481D01*
X136007615Y-96934869D01*
X135862930Y-97176119D01*
X135768091Y-97440960D01*
X116230000Y-97440960D01*
X116230000Y-93370000D01*
X161900000Y-93370000D01*
X161900001Y-126340000D01*
M02*
