G04 #@! TF.GenerationSoftware,KiCad,Pcbnew,(5.1.5)-2*
G04 #@! TF.CreationDate,2019-12-02T11:12:27+01:00*
G04 #@! TF.ProjectId,tutorial_1,7475746f-7269-4616-9c5f-312e6b696361,rev?*
G04 #@! TF.SameCoordinates,Original*
G04 #@! TF.FileFunction,Soldermask,Top*
G04 #@! TF.FilePolarity,Negative*
%FSLAX46Y46*%
G04 Gerber Fmt 4.6, Leading zero omitted, Abs format (unit mm)*
G04 Created by KiCad (PCBNEW (5.1.5)-2) date 2019-12-02 11:12:27*
%MOMM*%
%LPD*%
G04 APERTURE LIST*
%ADD10C,0.100000*%
G04 APERTURE END LIST*
D10*
G36*
X154161008Y-114347590D02*
G01*
X154656658Y-114446181D01*
X155590440Y-114832967D01*
X156430822Y-115394492D01*
X157145508Y-116109178D01*
X157707033Y-116949560D01*
X158093819Y-117883342D01*
X158291000Y-118874641D01*
X158291000Y-119885359D01*
X158093819Y-120876658D01*
X157707033Y-121810440D01*
X157145508Y-122650822D01*
X156430822Y-123365508D01*
X155590440Y-123927033D01*
X154656658Y-124313819D01*
X154161008Y-124412410D01*
X153665361Y-124511000D01*
X152654639Y-124511000D01*
X152158992Y-124412410D01*
X151663342Y-124313819D01*
X150729560Y-123927033D01*
X149889178Y-123365508D01*
X149174492Y-122650822D01*
X148612967Y-121810440D01*
X148226181Y-120876658D01*
X148029000Y-119885359D01*
X148029000Y-118874641D01*
X148226181Y-117883342D01*
X148612967Y-116949560D01*
X149174492Y-116109178D01*
X149889178Y-115394492D01*
X150729560Y-114832967D01*
X151663342Y-114446181D01*
X152158992Y-114347590D01*
X152654639Y-114249000D01*
X153665361Y-114249000D01*
X154161008Y-114347590D01*
G37*
G36*
X124191008Y-114347590D02*
G01*
X124686658Y-114446181D01*
X125620440Y-114832967D01*
X126460822Y-115394492D01*
X127175508Y-116109178D01*
X127737033Y-116949560D01*
X128123819Y-117883342D01*
X128321000Y-118874641D01*
X128321000Y-119885359D01*
X128123819Y-120876658D01*
X127737033Y-121810440D01*
X127175508Y-122650822D01*
X126460822Y-123365508D01*
X125620440Y-123927033D01*
X124686658Y-124313819D01*
X124191008Y-124412410D01*
X123695361Y-124511000D01*
X122684639Y-124511000D01*
X122188992Y-124412410D01*
X121693342Y-124313819D01*
X120759560Y-123927033D01*
X119919178Y-123365508D01*
X119204492Y-122650822D01*
X118642967Y-121810440D01*
X118256181Y-120876658D01*
X118059000Y-119885359D01*
X118059000Y-118874641D01*
X118256181Y-117883342D01*
X118642967Y-116949560D01*
X119204492Y-116109178D01*
X119919178Y-115394492D01*
X120759560Y-114832967D01*
X121693342Y-114446181D01*
X122188992Y-114347590D01*
X122684639Y-114249000D01*
X123695361Y-114249000D01*
X124191008Y-114347590D01*
G37*
G36*
X139181008Y-114347590D02*
G01*
X139676658Y-114446181D01*
X140610440Y-114832967D01*
X141450822Y-115394492D01*
X142165508Y-116109178D01*
X142727033Y-116949560D01*
X143113819Y-117883342D01*
X143311000Y-118874641D01*
X143311000Y-119885359D01*
X143113819Y-120876658D01*
X142727033Y-121810440D01*
X142165508Y-122650822D01*
X141450822Y-123365508D01*
X140610440Y-123927033D01*
X139676658Y-124313819D01*
X139181008Y-124412410D01*
X138685361Y-124511000D01*
X137674639Y-124511000D01*
X137178992Y-124412410D01*
X136683342Y-124313819D01*
X135749560Y-123927033D01*
X134909178Y-123365508D01*
X134194492Y-122650822D01*
X133632967Y-121810440D01*
X133246181Y-120876658D01*
X133049000Y-119885359D01*
X133049000Y-118874641D01*
X133246181Y-117883342D01*
X133632967Y-116949560D01*
X134194492Y-116109178D01*
X134909178Y-115394492D01*
X135749560Y-114832967D01*
X136683342Y-114446181D01*
X137178992Y-114347590D01*
X137674639Y-114249000D01*
X138685361Y-114249000D01*
X139181008Y-114347590D01*
G37*
G36*
X123438228Y-107131703D02*
G01*
X123593100Y-107195853D01*
X123732481Y-107288985D01*
X123851015Y-107407519D01*
X123944147Y-107546900D01*
X124008297Y-107701772D01*
X124041000Y-107866184D01*
X124041000Y-108033816D01*
X124008297Y-108198228D01*
X123944147Y-108353100D01*
X123851015Y-108492481D01*
X123732481Y-108611015D01*
X123593100Y-108704147D01*
X123438228Y-108768297D01*
X123273816Y-108801000D01*
X123106184Y-108801000D01*
X122941772Y-108768297D01*
X122786900Y-108704147D01*
X122647519Y-108611015D01*
X122528985Y-108492481D01*
X122435853Y-108353100D01*
X122371703Y-108198228D01*
X122339000Y-108033816D01*
X122339000Y-107866184D01*
X122371703Y-107701772D01*
X122435853Y-107546900D01*
X122528985Y-107407519D01*
X122647519Y-107288985D01*
X122786900Y-107195853D01*
X122941772Y-107131703D01*
X123106184Y-107099000D01*
X123273816Y-107099000D01*
X123438228Y-107131703D01*
G37*
G36*
X125978228Y-107131703D02*
G01*
X126133100Y-107195853D01*
X126272481Y-107288985D01*
X126391015Y-107407519D01*
X126484147Y-107546900D01*
X126548297Y-107701772D01*
X126581000Y-107866184D01*
X126581000Y-108033816D01*
X126548297Y-108198228D01*
X126484147Y-108353100D01*
X126391015Y-108492481D01*
X126272481Y-108611015D01*
X126133100Y-108704147D01*
X125978228Y-108768297D01*
X125813816Y-108801000D01*
X125646184Y-108801000D01*
X125481772Y-108768297D01*
X125326900Y-108704147D01*
X125187519Y-108611015D01*
X125068985Y-108492481D01*
X124975853Y-108353100D01*
X124911703Y-108198228D01*
X124879000Y-108033816D01*
X124879000Y-107866184D01*
X124911703Y-107701772D01*
X124975853Y-107546900D01*
X125068985Y-107407519D01*
X125187519Y-107288985D01*
X125326900Y-107195853D01*
X125481772Y-107131703D01*
X125646184Y-107099000D01*
X125813816Y-107099000D01*
X125978228Y-107131703D01*
G37*
G36*
X138011000Y-106261000D02*
G01*
X136309000Y-106261000D01*
X136309000Y-104559000D01*
X138011000Y-104559000D01*
X138011000Y-106261000D01*
G37*
G36*
X139948228Y-104591703D02*
G01*
X140103100Y-104655853D01*
X140242481Y-104748985D01*
X140361015Y-104867519D01*
X140454147Y-105006900D01*
X140518297Y-105161772D01*
X140551000Y-105326184D01*
X140551000Y-105493816D01*
X140518297Y-105658228D01*
X140454147Y-105813100D01*
X140361015Y-105952481D01*
X140242481Y-106071015D01*
X140103100Y-106164147D01*
X139948228Y-106228297D01*
X139783816Y-106261000D01*
X139616184Y-106261000D01*
X139451772Y-106228297D01*
X139296900Y-106164147D01*
X139157519Y-106071015D01*
X139038985Y-105952481D01*
X138945853Y-105813100D01*
X138881703Y-105658228D01*
X138849000Y-105493816D01*
X138849000Y-105326184D01*
X138881703Y-105161772D01*
X138945853Y-105006900D01*
X139038985Y-104867519D01*
X139157519Y-104748985D01*
X139296900Y-104655853D01*
X139451772Y-104591703D01*
X139616184Y-104559000D01*
X139783816Y-104559000D01*
X139948228Y-104591703D01*
G37*
G36*
X142488228Y-104591703D02*
G01*
X142643100Y-104655853D01*
X142782481Y-104748985D01*
X142901015Y-104867519D01*
X142994147Y-105006900D01*
X143058297Y-105161772D01*
X143091000Y-105326184D01*
X143091000Y-105493816D01*
X143058297Y-105658228D01*
X142994147Y-105813100D01*
X142901015Y-105952481D01*
X142782481Y-106071015D01*
X142643100Y-106164147D01*
X142488228Y-106228297D01*
X142323816Y-106261000D01*
X142156184Y-106261000D01*
X141991772Y-106228297D01*
X141836900Y-106164147D01*
X141697519Y-106071015D01*
X141578985Y-105952481D01*
X141485853Y-105813100D01*
X141421703Y-105658228D01*
X141389000Y-105493816D01*
X141389000Y-105326184D01*
X141421703Y-105161772D01*
X141485853Y-105006900D01*
X141578985Y-104867519D01*
X141697519Y-104748985D01*
X141836900Y-104655853D01*
X141991772Y-104591703D01*
X142156184Y-104559000D01*
X142323816Y-104559000D01*
X142488228Y-104591703D01*
G37*
G36*
X145028228Y-104591703D02*
G01*
X145183100Y-104655853D01*
X145322481Y-104748985D01*
X145441015Y-104867519D01*
X145534147Y-105006900D01*
X145598297Y-105161772D01*
X145631000Y-105326184D01*
X145631000Y-105493816D01*
X145598297Y-105658228D01*
X145534147Y-105813100D01*
X145441015Y-105952481D01*
X145322481Y-106071015D01*
X145183100Y-106164147D01*
X145028228Y-106228297D01*
X144863816Y-106261000D01*
X144696184Y-106261000D01*
X144531772Y-106228297D01*
X144376900Y-106164147D01*
X144237519Y-106071015D01*
X144118985Y-105952481D01*
X144025853Y-105813100D01*
X143961703Y-105658228D01*
X143929000Y-105493816D01*
X143929000Y-105326184D01*
X143961703Y-105161772D01*
X144025853Y-105006900D01*
X144118985Y-104867519D01*
X144237519Y-104748985D01*
X144376900Y-104655853D01*
X144531772Y-104591703D01*
X144696184Y-104559000D01*
X144863816Y-104559000D01*
X145028228Y-104591703D01*
G37*
G36*
X153918228Y-102051703D02*
G01*
X154073100Y-102115853D01*
X154212481Y-102208985D01*
X154331015Y-102327519D01*
X154424147Y-102466900D01*
X154488297Y-102621772D01*
X154521000Y-102786184D01*
X154521000Y-102953816D01*
X154488297Y-103118228D01*
X154424147Y-103273100D01*
X154331015Y-103412481D01*
X154212481Y-103531015D01*
X154073100Y-103624147D01*
X153918228Y-103688297D01*
X153753816Y-103721000D01*
X153586184Y-103721000D01*
X153421772Y-103688297D01*
X153266900Y-103624147D01*
X153127519Y-103531015D01*
X153008985Y-103412481D01*
X152915853Y-103273100D01*
X152851703Y-103118228D01*
X152819000Y-102953816D01*
X152819000Y-102786184D01*
X152851703Y-102621772D01*
X152915853Y-102466900D01*
X153008985Y-102327519D01*
X153127519Y-102208985D01*
X153266900Y-102115853D01*
X153421772Y-102051703D01*
X153586184Y-102019000D01*
X153753816Y-102019000D01*
X153918228Y-102051703D01*
G37*
G36*
X126681000Y-101281000D02*
G01*
X124779000Y-101281000D01*
X124779000Y-99379000D01*
X126681000Y-99379000D01*
X126681000Y-101281000D01*
G37*
G36*
X123467395Y-99415546D02*
G01*
X123640466Y-99487234D01*
X123640467Y-99487235D01*
X123796227Y-99591310D01*
X123928690Y-99723773D01*
X123971284Y-99787520D01*
X124032766Y-99879534D01*
X124104454Y-100052605D01*
X124141000Y-100236333D01*
X124141000Y-100423667D01*
X124104454Y-100607395D01*
X124032766Y-100780466D01*
X124032765Y-100780467D01*
X123928690Y-100936227D01*
X123796227Y-101068690D01*
X123773092Y-101084148D01*
X123640466Y-101172766D01*
X123467395Y-101244454D01*
X123283667Y-101281000D01*
X123096333Y-101281000D01*
X122912605Y-101244454D01*
X122739534Y-101172766D01*
X122606908Y-101084148D01*
X122583773Y-101068690D01*
X122451310Y-100936227D01*
X122347235Y-100780467D01*
X122347234Y-100780466D01*
X122275546Y-100607395D01*
X122239000Y-100423667D01*
X122239000Y-100236333D01*
X122275546Y-100052605D01*
X122347234Y-99879534D01*
X122408716Y-99787520D01*
X122451310Y-99723773D01*
X122583773Y-99591310D01*
X122739533Y-99487235D01*
X122739534Y-99487234D01*
X122912605Y-99415546D01*
X123096333Y-99379000D01*
X123283667Y-99379000D01*
X123467395Y-99415546D01*
G37*
G36*
X153918228Y-99511703D02*
G01*
X154073100Y-99575853D01*
X154212481Y-99668985D01*
X154331015Y-99787519D01*
X154424147Y-99926900D01*
X154488297Y-100081772D01*
X154521000Y-100246184D01*
X154521000Y-100413816D01*
X154488297Y-100578228D01*
X154424147Y-100733100D01*
X154331015Y-100872481D01*
X154212481Y-100991015D01*
X154073100Y-101084147D01*
X153918228Y-101148297D01*
X153753816Y-101181000D01*
X153586184Y-101181000D01*
X153421772Y-101148297D01*
X153266900Y-101084147D01*
X153127519Y-100991015D01*
X153008985Y-100872481D01*
X152915853Y-100733100D01*
X152851703Y-100578228D01*
X152819000Y-100413816D01*
X152819000Y-100246184D01*
X152851703Y-100081772D01*
X152915853Y-99926900D01*
X153008985Y-99787519D01*
X153127519Y-99668985D01*
X153266900Y-99575853D01*
X153421772Y-99511703D01*
X153586184Y-99479000D01*
X153753816Y-99479000D01*
X153918228Y-99511703D01*
G37*
G36*
X137408228Y-96971703D02*
G01*
X137563100Y-97035853D01*
X137702481Y-97128985D01*
X137821015Y-97247519D01*
X137914147Y-97386900D01*
X137978297Y-97541772D01*
X138011000Y-97706184D01*
X138011000Y-97873816D01*
X137978297Y-98038228D01*
X137914147Y-98193100D01*
X137821015Y-98332481D01*
X137702481Y-98451015D01*
X137563100Y-98544147D01*
X137408228Y-98608297D01*
X137243816Y-98641000D01*
X137076184Y-98641000D01*
X136911772Y-98608297D01*
X136756900Y-98544147D01*
X136617519Y-98451015D01*
X136498985Y-98332481D01*
X136405853Y-98193100D01*
X136341703Y-98038228D01*
X136309000Y-97873816D01*
X136309000Y-97706184D01*
X136341703Y-97541772D01*
X136405853Y-97386900D01*
X136498985Y-97247519D01*
X136617519Y-97128985D01*
X136756900Y-97035853D01*
X136911772Y-96971703D01*
X137076184Y-96939000D01*
X137243816Y-96939000D01*
X137408228Y-96971703D01*
G37*
G36*
X139948228Y-96971703D02*
G01*
X140103100Y-97035853D01*
X140242481Y-97128985D01*
X140361015Y-97247519D01*
X140454147Y-97386900D01*
X140518297Y-97541772D01*
X140551000Y-97706184D01*
X140551000Y-97873816D01*
X140518297Y-98038228D01*
X140454147Y-98193100D01*
X140361015Y-98332481D01*
X140242481Y-98451015D01*
X140103100Y-98544147D01*
X139948228Y-98608297D01*
X139783816Y-98641000D01*
X139616184Y-98641000D01*
X139451772Y-98608297D01*
X139296900Y-98544147D01*
X139157519Y-98451015D01*
X139038985Y-98332481D01*
X138945853Y-98193100D01*
X138881703Y-98038228D01*
X138849000Y-97873816D01*
X138849000Y-97706184D01*
X138881703Y-97541772D01*
X138945853Y-97386900D01*
X139038985Y-97247519D01*
X139157519Y-97128985D01*
X139296900Y-97035853D01*
X139451772Y-96971703D01*
X139616184Y-96939000D01*
X139783816Y-96939000D01*
X139948228Y-96971703D01*
G37*
G36*
X142488228Y-96971703D02*
G01*
X142643100Y-97035853D01*
X142782481Y-97128985D01*
X142901015Y-97247519D01*
X142994147Y-97386900D01*
X143058297Y-97541772D01*
X143091000Y-97706184D01*
X143091000Y-97873816D01*
X143058297Y-98038228D01*
X142994147Y-98193100D01*
X142901015Y-98332481D01*
X142782481Y-98451015D01*
X142643100Y-98544147D01*
X142488228Y-98608297D01*
X142323816Y-98641000D01*
X142156184Y-98641000D01*
X141991772Y-98608297D01*
X141836900Y-98544147D01*
X141697519Y-98451015D01*
X141578985Y-98332481D01*
X141485853Y-98193100D01*
X141421703Y-98038228D01*
X141389000Y-97873816D01*
X141389000Y-97706184D01*
X141421703Y-97541772D01*
X141485853Y-97386900D01*
X141578985Y-97247519D01*
X141697519Y-97128985D01*
X141836900Y-97035853D01*
X141991772Y-96971703D01*
X142156184Y-96939000D01*
X142323816Y-96939000D01*
X142488228Y-96971703D01*
G37*
G36*
X145028228Y-96971703D02*
G01*
X145183100Y-97035853D01*
X145322481Y-97128985D01*
X145441015Y-97247519D01*
X145534147Y-97386900D01*
X145598297Y-97541772D01*
X145631000Y-97706184D01*
X145631000Y-97873816D01*
X145598297Y-98038228D01*
X145534147Y-98193100D01*
X145441015Y-98332481D01*
X145322481Y-98451015D01*
X145183100Y-98544147D01*
X145028228Y-98608297D01*
X144863816Y-98641000D01*
X144696184Y-98641000D01*
X144531772Y-98608297D01*
X144376900Y-98544147D01*
X144237519Y-98451015D01*
X144118985Y-98332481D01*
X144025853Y-98193100D01*
X143961703Y-98038228D01*
X143929000Y-97873816D01*
X143929000Y-97706184D01*
X143961703Y-97541772D01*
X144025853Y-97386900D01*
X144118985Y-97247519D01*
X144237519Y-97128985D01*
X144376900Y-97035853D01*
X144531772Y-96971703D01*
X144696184Y-96939000D01*
X144863816Y-96939000D01*
X145028228Y-96971703D01*
G37*
M02*
